<svg xmlns="http://www.w3.org/2000/svg" viewBox="0 0 1000 780" id="piso-5">
  <title>5to Piso — FIUBA Paseo Colón</title>
  <defs>
    <style>
      .lbl { font:600 11px system-ui,sans-serif; fill:#333; text-anchor:middle; dominant-baseline:central; pointer-events:none; }
      .lbl-sm { font:500 9px system-ui,sans-serif; fill:#555; text-anchor:middle; dominant-baseline:central; pointer-events:none; }
      .lbl-lg { font:700 13px system-ui,sans-serif; fill:#333; text-anchor:middle; dominant-baseline:central; pointer-events:none; }
      .espacio { cursor:pointer; }
      .espacio:hover rect { filter:brightness(.92); }
    </style>
  </defs>

  <rect width="1000" height="780" fill="#C8C4BF"/>
  <rect x="40" y="30" width="920" height="720" rx="2" fill="#DEDBD7" stroke="#888" stroke-width="5"/>
  <rect x="265" y="155" width="470" height="470" fill="#E4E2DE"/>

  <g class="elevadores">
    <rect x="420" y="285" width="160" height="200" rx="2" fill="#D0CCC8" stroke="#AAA" stroke-width="1.5"/>
    <text x="500" y="390" class="lbl-sm" fill="#888">ASCENSORES</text>
  </g>

  <!-- ── NORTE ── -->
  <g class="tipo-otro">
    <rect x="42" y="32" width="221" height="121" rx="3" fill="#F5F4F0" stroke="#CCC" stroke-width="1.5"/>
    <text x="153" y="82" class="lbl-sm">Hall /</text>
    <text x="153" y="98" class="lbl-sm">Escaleras</text>
  </g>
  <g id="lab-quim-general" class="espacio tipo-laboratorio">
    <rect x="265" y="32" width="310" height="121" rx="3" fill="#F2EEFB" stroke="#C8BCE8" stroke-width="1.5"/>
    <text x="420" y="82" class="lbl-sm">Lab. Química</text>
    <text x="420" y="98" class="lbl-sm">General</text>
  </g>
  <g class="tipo-otro">
    <rect x="577" y="32" width="105" height="121" rx="3" fill="#F5F4F0" stroke="#CCC" stroke-width="1.5"/>
    <text x="630" y="82" class="lbl-sm">Depósito</text>
  </g>
  <g id="ceconcei" class="espacio tipo-tramites">
    <rect x="684" y="32" width="274" height="121" rx="3" fill="#FBF5EE" stroke="#E8D4BC" stroke-width="1.5"/>
    <text x="821" y="82" class="lbl-sm">CECONCEI /</text>
    <text x="821" y="98" class="lbl-sm">Lab Investigación</text>
  </g>

  <!-- ── OESTE ── -->
  <g id="aula-505" class="espacio tipo-aula">
    <rect x="42" y="155" width="221" height="120" rx="3" fill="#EEF2FB" stroke="#BCC8E8" stroke-width="2"/>
    <text x="153" y="215" class="lbl">Aula 505</text>
  </g>
  <g id="quim-organica" class="espacio tipo-laboratorio">
    <rect x="42" y="277" width="221" height="125" rx="3" fill="#F2EEFB" stroke="#C8BCE8" stroke-width="1.5"/>
    <text x="153" y="330" class="lbl-sm">Química</text>
    <text x="153" y="346" class="lbl-sm">Orgánica</text>
  </g>
  <g id="quim-analitica" class="espacio tipo-laboratorio">
    <rect x="42" y="404" width="221" height="125" rx="3" fill="#F2EEFB" stroke="#C8BCE8" stroke-width="1.5"/>
    <text x="153" y="455" class="lbl-sm">Química</text>
    <text x="153" y="471" class="lbl-sm">Analítica</text>
  </g>
  <g id="fisilo-quim-ceramicos" class="espacio tipo-laboratorio">
    <rect x="42" y="531" width="221" height="120" rx="3" fill="#F2EEFB" stroke="#C8BCE8" stroke-width="1.5"/>
    <text x="153" y="581" class="lbl-sm">Fis-Quím</text>
    <text x="153" y="597" class="lbl-sm">Mat. Cerámicos</text>
  </g>
  <g id="dpto-quimica" class="espacio tipo-tramites">
    <rect x="42" y="653" width="221" height="93" rx="3" fill="#FBF5EE" stroke="#E8D4BC" stroke-width="2"/>
    <text x="153" y="700" class="lbl">DPTO Química</text>
  </g>

  <!-- ── INTERIOR NO ── -->
  <g id="aula-503" class="espacio tipo-aula">
    <rect x="267" y="157" width="151" height="126" rx="3" fill="#EEF2FB" stroke="#BCC8E8" stroke-width="2"/>
    <text x="343" y="220" class="lbl">Aula 503</text>
  </g>
  <g id="bano-damas-p5" class="espacio tipo-bano">
    <rect x="267" y="285" width="151" height="65" rx="3" fill="#EEF9FB" stroke="#BCE4E8" stroke-width="1.5"/>
    <text x="343" y="317" class="lbl-sm">Baño ♀</text>
  </g>
  <g id="quim-sist-hetero" class="espacio tipo-laboratorio">
    <rect x="267" y="352" width="151" height="125" rx="3" fill="#F2EEFB" stroke="#C8BCE8" stroke-width="1.5"/>
    <text x="343" y="402" class="lbl-sm">Quím. Sist.</text>
    <text x="343" y="418" class="lbl-sm">Heterogéneos</text>
  </g>
  <g class="tipo-otro">
    <rect x="267" y="479" width="151" height="144" rx="3" fill="#F5F4F0" stroke="#CCC" stroke-width="1.5"/>
    <text x="343" y="551" class="lbl-sm">Depósito /</text>
    <text x="343" y="567" class="lbl-sm">Boxes</text>
  </g>

  <!-- ── CENTRO — Aulas 501 + 509 ── -->
  <g id="aula-501" class="espacio tipo-aula">
    <rect x="420" y="157" width="160" height="126" rx="3" fill="#EEF2FB" stroke="#BCC8E8" stroke-width="2"/>
    <text x="500" y="220" class="lbl">Aula 501</text>
  </g>
  <g id="aula-509" class="espacio tipo-aula">
    <rect x="420" y="487" width="160" height="138" rx="3" fill="#EEF2FB" stroke="#BCC8E8" stroke-width="2"/>
    <text x="500" y="556" class="lbl">Aula 509</text>
  </g>

  <!-- ── INTERIOR NE ── -->
  <g id="bano-hombres-p5" class="espacio tipo-bano">
    <rect x="582" y="157" width="151" height="65" rx="3" fill="#EEF9FB" stroke="#BCE4E8" stroke-width="1.5"/>
    <text x="658" y="189" class="lbl-sm">Baño ♂</text>
  </g>
  <g id="quim-aplicada" class="espacio tipo-laboratorio">
    <rect x="582" y="224" width="151" height="125" rx="3" fill="#F2EEFB" stroke="#C8BCE8" stroke-width="1.5"/>
    <text x="658" y="277" class="lbl-sm">Química y</text>
    <text x="658" y="293" class="lbl-sm">Quím. Aplicada</text>
  </g>
  <g id="inst-biomedica-p5" class="espacio tipo-laboratorio">
    <rect x="582" y="351" width="151" height="125" rx="3" fill="#F2EEFB" stroke="#C8BCE8" stroke-width="1.5"/>
    <text x="658" y="403" class="lbl-sm">Inst. Ing.</text>
    <text x="658" y="419" class="lbl-sm">Biomédica</text>
  </g>
  <g class="tipo-otro">
    <rect x="582" y="478" width="151" height="147" rx="3" fill="#F5F4F0" stroke="#CCC" stroke-width="1.5"/>
    <text x="658" y="551" class="lbl-sm">Depósito /</text>
    <text x="658" y="567" class="lbl-sm">Boxes</text>
  </g>

  <!-- ── ESTE ── -->
  <g id="aula-500" class="espacio tipo-aula">
    <rect x="737" y="155" width="221" height="130" rx="3" fill="#EEF2FB" stroke="#BCC8E8" stroke-width="2"/>
    <text x="848" y="220" class="lbl">Aula 500</text>
  </g>
  <g id="aula-502" class="espacio tipo-aula">
    <rect x="737" y="287" width="221" height="115" rx="3" fill="#EEF2FB" stroke="#BCC8E8" stroke-width="1.5"/>
    <text x="848" y="344" class="lbl">Aula 502</text>
  </g>
  <g id="aula-504" class="espacio tipo-aula">
    <rect x="737" y="404" width="221" height="115" rx="3" fill="#EEF2FB" stroke="#BCC8E8" stroke-width="1.5"/>
    <text x="848" y="461" class="lbl">Aula 504</text>
  </g>
  <g id="aula-506" class="espacio tipo-aula">
    <rect x="737" y="521" width="221" height="110" rx="3" fill="#EEF2FB" stroke="#BCC8E8" stroke-width="1.5"/>
    <text x="848" y="576" class="lbl">Aula 506</text>
  </g>
  <g id="aula-512" class="espacio tipo-aula">
    <rect x="737" y="633" width="221" height="113" rx="3" fill="#EEF2FB" stroke="#BCC8E8" stroke-width="1.5"/>
    <text x="848" y="690" class="lbl">Aula 512</text>
  </g>

  <!-- ── SUR ── -->
  <g id="aula-507" class="espacio tipo-aula">
    <rect x="265" y="628" width="153" height="118" rx="3" fill="#EEF2FB" stroke="#BCC8E8" stroke-width="1.5"/>
    <text x="342" y="688" class="lbl">Aula 507</text>
  </g>
  <g id="aula-510" class="espacio tipo-aula">
    <rect x="420" y="628" width="160" height="118" rx="3" fill="#EEF2FB" stroke="#BCC8E8" stroke-width="2"/>
    <text x="500" y="688" class="lbl">Aula 510</text>
  </g>

  <text x="500" y="19" font-family="system-ui,sans-serif" font-size="11" fill="#888" text-anchor="middle">Azopardo ↑</text>
  <text x="500" y="775" font-family="system-ui,sans-serif" font-size="11" fill="#888" text-anchor="middle">↓ Av. Paseo Colón</text>
  <text x="20"  y="390" font-family="system-ui,sans-serif" font-size="11" fill="#888" text-anchor="middle" transform="rotate(-90,20,390)">Av. Independencia</text>
  <text x="983" y="390" font-family="system-ui,sans-serif" font-size="11" fill="#888" text-anchor="middle" transform="rotate(90,983,390)">Estados Unidos</text>
</svg>
